<svg
width="10"
height="9"
viewBox="0 0 10 9"
fill="none"
xmlns="http://www.w3.org/2000/svg"
>
<path
  d="M5.93996 4.49997L8.80663 1.46122C8.93216 1.32784 9.00269 1.14693 9.00269 0.958302C9.00269 0.769672 8.93216 0.588767 8.80663 0.455385C8.68109 0.322003 8.51083 0.24707 8.33329 0.24707C8.15576 0.24707 7.9855 0.322003 7.85996 0.455385L4.99996 3.50122L2.13996 0.455385C2.01442 0.322003 1.84416 0.24707 1.66663 0.24707C1.48909 0.24707 1.31883 0.322003 1.19329 0.455385C1.06776 0.588767 0.997231 0.769672 0.997231 0.958302C0.997231 1.14693 1.06776 1.32784 1.19329 1.46122L4.05996 4.49997L1.19329 7.53872C1.13081 7.60457 1.08121 7.68291 1.04737 7.76923C1.01352 7.85554 0.996094 7.94813 0.996094 8.04164C0.996094 8.13514 1.01352 8.22773 1.04737 8.31404C1.08121 8.40036 1.13081 8.4787 1.19329 8.54455C1.25527 8.61094 1.329 8.66364 1.41024 8.6996C1.49148 8.73556 1.57862 8.75408 1.66663 8.75408C1.75463 8.75408 1.84177 8.73556 1.92301 8.6996C2.00425 8.66364 2.07798 8.61094 2.13996 8.54455L4.99996 5.49872L7.85996 8.54455C7.92194 8.61094 7.99567 8.66364 8.07691 8.6996C8.15815 8.73556 8.24529 8.75408 8.33329 8.75408C8.4213 8.75408 8.50844 8.73556 8.58968 8.6996C8.67092 8.66364 8.74465 8.61094 8.80663 8.54455C8.86911 8.4787 8.91871 8.40036 8.95255 8.31404C8.9864 8.22773 9.00383 8.13514 9.00383 8.04164C9.00383 7.94813 8.9864 7.85554 8.95255 7.76923C8.91871 7.68291 8.86911 7.60457 8.80663 7.53872L5.93996 4.49997Z"
  fill="white"
/>
</svg>