<svg width="62" height="62" viewBox="0 0 62 62" fill="none" xmlns="http://www.w3.org/2000/svg">
  <path d="M32.8351 29.1657C32.3522 28.6924 31.703 28.4272 31.0268 28.4272C30.3506 28.4272 29.7014 28.6924 29.2185 29.1657L21.4685 36.6574C21.1943 36.8836 20.9698 37.1639 20.809 37.4808C20.6482 37.7977 20.5544 38.1444 20.5337 38.4992C20.513 38.854 20.5656 39.2092 20.6885 39.5427C20.8113 39.8762 21.0016 40.1808 21.2475 40.4374C21.4934 40.6939 21.7896 40.897 22.1176 41.0339C22.4455 41.1708 22.7982 41.2386 23.1536 41.2329C23.5089 41.2273 23.8593 41.1484 24.1827 41.0012C24.5062 40.854 24.7958 40.6416 25.0335 40.3774L28.4176 37.0965V51.6665C28.4176 52.3517 28.6898 53.0088 29.1743 53.4932C29.6587 53.9777 30.3158 54.2499 31.001 54.2499C31.6861 54.2499 32.3432 53.9777 32.8276 53.4932C33.3121 53.0088 33.5843 52.3517 33.5843 51.6665V37.2257L36.9168 40.584C37.1569 40.8262 37.4427 41.0184 37.7575 41.1495C38.0723 41.2807 38.4099 41.3482 38.7509 41.3482C39.092 41.3482 39.4296 41.2807 39.7444 41.1495C40.0592 41.0184 40.345 40.8262 40.5851 40.584C40.8272 40.3439 41.0194 40.0582 41.1506 39.7434C41.2817 39.4286 41.3493 39.0909 41.3493 38.7499C41.3493 38.4088 41.2817 38.0712 41.1506 37.7564C41.0194 37.4416 40.8272 37.1559 40.5851 36.9157L32.8351 29.1657Z" fill="#9CABBA"/>
  <path d="M45.6483 18.0832C44.5942 15.0376 42.617 12.3963 39.9917 10.5269C37.3664 8.65745 34.2237 7.65283 31.0008 7.65283C27.778 7.65283 24.6352 8.65745 22.01 10.5269C19.3847 12.3963 17.4074 15.0376 16.3533 18.0832C14.0323 18.3941 11.8395 19.3301 10.0094 20.7911C8.17936 22.252 6.78088 24.1831 5.96359 26.3775C5.1463 28.572 4.94096 30.9474 5.36953 33.2495C5.7981 35.5517 6.84445 37.694 8.39666 39.4474C8.58416 39.7777 8.84216 40.0625 9.15231 40.2817C9.46245 40.5009 9.81711 40.649 10.191 40.7155C10.5649 40.7819 10.9489 40.7651 11.3156 40.6663C11.6823 40.5675 12.0226 40.389 12.3125 40.1436C12.6023 39.8982 12.8345 39.5919 12.9925 39.2465C13.1504 38.9012 13.2303 38.5252 13.2264 38.1455C13.2225 37.7657 13.1349 37.3915 12.9699 37.0495C12.8049 36.7074 12.5665 36.406 12.2717 36.1666C11.2722 35.0492 10.6183 33.6659 10.3892 32.1844C10.16 30.7028 10.3655 29.1866 10.9807 27.8195C11.5959 26.4524 12.5944 25.293 13.8552 24.482C15.116 23.6709 16.585 23.2429 18.0842 23.2499H18.3425C18.9469 23.2621 19.5364 23.062 20.0084 22.6843C20.4804 22.3067 20.8051 21.7755 20.9258 21.1832C21.4002 18.8473 22.6675 16.7472 24.513 15.2387C26.3586 13.7303 28.6689 12.9062 31.0525 12.9062C33.4361 12.9062 35.7464 13.7303 37.592 15.2387C39.4375 16.7472 40.7048 18.8473 41.1792 21.1832C41.2999 21.7755 41.6246 22.3067 42.0966 22.6843C42.5686 23.062 43.1581 23.2621 43.7625 23.2499H43.9175C45.4166 23.2429 46.8856 23.6709 48.1464 24.482C49.4072 25.293 50.4058 26.4524 51.021 27.8195C51.6362 29.1866 51.8416 30.7028 51.6125 32.1844C51.3834 33.6659 50.7294 35.0492 49.73 36.1666C49.5024 36.4218 49.3278 36.7196 49.2162 37.0428C49.1046 37.366 49.0583 37.7081 49.0799 38.0493C49.1015 38.3905 49.1907 38.7241 49.3422 39.0306C49.4937 39.3371 49.7045 39.6105 49.9625 39.8349C50.4334 40.2503 51.0396 40.4798 51.6675 40.4807C52.0343 40.4803 52.3968 40.4017 52.7308 40.2503C53.0649 40.0988 53.3629 39.878 53.605 39.6024C55.2003 37.8521 56.2836 35.6968 56.7366 33.3723C57.1896 31.0478 56.9947 28.6434 56.1734 26.4222C55.3521 24.2009 53.9359 22.2482 52.0797 20.7775C50.2234 19.3068 47.9986 18.3748 45.6483 18.0832Z" fill="#9CABBA"/>
  </svg>
